
<svg xmlns="http://www.w3.org/2000/svg" width="1780" height="436" viewBox="0 0 1780 436">
    <defs>
        <linearGradient id="a" x1="50%" x2="50%" y1="0%" y2="100%">
            <stop offset="0%" stop-color="#C1DBF8"/>
            <stop offset="100%" stop-color="#4A90E2"/>
        </linearGradient>
    </defs>
    <g fill="none" fill-rule="evenodd">
        <path stroke="#4A90E2" stroke-width=".936" d="M431.892 1.147l33.69 58.382-33.69 58.382h-67.377l-33.69-58.382 33.69-58.382zM212.305 1.147l33.689 58.382-33.689 58.382h-67.378l-33.689-58.382 33.69-58.382zM869.847 2.147l33.69 58.382-33.69 58.382H802.47l-33.69-58.382 33.69-58.382zM650.87 2.147l33.689 58.382-33.69 58.382h-67.377l-33.689-58.382 33.69-58.382zM1088.825 2.147l33.689 58.382-33.69 58.382h-67.377l-33.689-58.382 33.69-58.382z" opacity=".6"/>
        <path stroke="#4A90E2" stroke-width=".936" d="M1524.966 127.41l33.688 58.383-33.688 58.382h-67.378l-33.689-58.382 33.689-58.382z"/>
        <path stroke="#4A90E2" stroke-width=".936" d="M541.381 64.816l33.689 58.382-33.689 58.382h-67.378l-33.688-58.382 33.688-58.382z" opacity=".6"/>
        <path stroke="#4A90E2" stroke-width=".936" d="M211.938 127.56l33.689 58.383-33.689 58.382H144.56l-33.689-58.382 33.69-58.382z"/>
        <path stroke="#4A90E2" stroke-width=".936" d="M321.525 62.943l33.69 58.382-33.69 58.382h-67.377l-33.69-58.382 33.69-58.382zM101.938 62.943l33.689 58.382-33.689 58.382H34.56L.871 121.325l33.69-58.382z" opacity=".6"/>
        <path stroke="#4A90E2" stroke-width=".936" d="M431.014 127.41l33.689 58.383-33.689 58.382h-67.378l-33.688-58.382 33.688-58.382z"/>
        <path stroke="#4A90E2" stroke-width=".936" d="M1307.802 3.083l33.689 58.382-33.689 58.382h-67.377l-33.69-58.382 33.69-58.382zM1745.055 3.083l33.69 58.382-33.69 58.382h-67.377l-33.69-58.382 33.69-58.382zM1635.39 63.742l33.689 58.382-33.689 58.382h-67.378l-33.688-58.382 33.688-58.382zM1745.055 128.023l33.69 58.382-33.69 58.382h-67.377l-33.69-58.382 33.69-58.382zM760.359 64.816l33.688 58.382-33.688 58.382H692.98l-33.689-58.382 33.689-58.382z" opacity=".6"/>
        <path stroke="#4A90E2" stroke-width=".936" d="M1198.313 64.816l33.69 58.382-33.69 58.382h-67.377l-33.689-58.382 33.689-58.382z"/>
        <path fill="#4A90E2" d="M430.486 127.976l33.487 57.978-33.487 57.978h-66.972l-33.487-57.978 33.487-57.978zM1524.486 127.976l33.487 57.978-33.487 57.978h-66.972l-33.487-57.978 33.487-57.978z" opacity=".2"/>
        <path stroke="#4A90E2" stroke-width=".936" d="M1416.413 64.816l33.688 58.382-33.688 58.382h-67.378l-33.689-58.382 33.689-58.382zM430.957 253.012l33.688 58.382-33.688 58.382h-67.378l-33.689-58.382 33.689-58.382zM321.525 190.143l33.69 58.382-33.69 58.382h-67.377l-33.69-58.382 33.69-58.382z"/>
        <path stroke="#4A90E2" stroke-width=".936" d="M1635.39 318.417l33.689 58.382-33.689 58.382h-67.378l-33.688-58.382 33.688-58.382z" opacity=".6"/>
        <path stroke="#4A90E2" stroke-width=".936" d="M1416.413 191.08l33.688 58.382-33.688 58.382h-67.378l-33.689-58.382 33.689-58.383zM1634.454 191.08l33.69 58.382-33.69 58.382h-67.377l-33.69-58.382 33.69-58.383z"/>
        <path fill="url(#a)" fill-opacity=".15" d="M305.128 210.876l57.99 33.467-.012 66.954-58 33.486-57.989-33.467.011-66.954z" transform="rotate(30 350.942 233.316)"/>
        <path fill="url(#a)" fill-opacity=".15" d="M1617.128 211.876l57.99 33.467-.012 66.954-58 33.486-57.989-33.467.011-66.954z" transform="rotate(30 1662.942 234.316)"/>
        <path fill="#4A90E2" fill-rule="nonzero" d="M1392.91 255.776a7.086 7.086 0 0 0-5.923 3.209l-11.314-8.052a9.505 9.505 0 0 0-.426-5.933l12.319-6.226a7.059 7.059 0 0 0 5.343 2.446c3.907 0 7.086-3.19 7.086-7.11 0-3.92-3.179-7.11-7.086-7.11-3.907 0-7.086 3.19-7.086 7.11 0 .543.062 1.071.177 1.58l-12.635 6.39a9.43 9.43 0 0 0-6.885-2.979c-5.228 0-9.48 4.266-9.48 9.512s4.252 9.512 9.48 9.512c3.18 0 6-1.58 7.723-3.997l11.64 8.282c-.01.158-.015.317-.015.48 0 3.92 3.179 7.11 7.086 7.11 3.907 0 7.086-3.19 7.086-7.11 0-3.92-3.184-7.114-7.09-7.114zm0-25.317a3.65 3.65 0 0 1 3.638 3.65 3.65 3.65 0 0 1-3.639 3.652 3.65 3.65 0 0 1-3.639-3.651 3.65 3.65 0 0 1 3.64-3.651zm-26.43 24.207c-3.328 0-6.033-2.714-6.033-6.053s2.705-6.053 6.033-6.053c3.328 0 6.033 2.714 6.033 6.053s-2.705 6.053-6.033 6.053zm26.43 11.87a3.65 3.65 0 0 1-3.64-3.65 3.65 3.65 0 0 1 3.64-3.652 3.65 3.65 0 0 1 3.638 3.651 3.65 3.65 0 0 1-3.639 3.651zM423.355 332.225l-12.627-12.62a23.475 23.475 0 0 0 5.414-15.034c0-13.02-10.552-23.571-23.57-23.571-13.02 0-23.572 10.552-23.572 23.571 0 13.02 10.552 23.572 23.571 23.572 5.715 0 10.95-2.032 15.033-5.414l12.626 12.626c.43.43.995.645 1.566.645.57 0 1.129-.215 1.565-.645a2.229 2.229 0 0 0-.006-3.13zm-23.332-10.006a18.951 18.951 0 0 1-7.452 1.504c-2.59 0-5.095-.503-7.452-1.504a19.107 19.107 0 0 1-6.089-4.106 19.108 19.108 0 0 1-4.107-6.09 18.952 18.952 0 0 1-1.503-7.452c0-2.59.503-5.094 1.503-7.452a19.108 19.108 0 0 1 4.107-6.089 19.107 19.107 0 0 1 6.09-4.106c2.356-1.001 4.86-1.504 7.451-1.504 2.59 0 5.095.503 7.452 1.504a19.107 19.107 0 0 1 6.09 4.106 19.108 19.108 0 0 1 4.106 6.09c1 2.357 1.504 4.861 1.504 7.451s-.504 5.095-1.504 7.452a19.108 19.108 0 0 1-4.107 6.09 19.04 19.04 0 0 1-6.089 4.106z"/>
    </g>
</svg>
