<?xml version="1.0" encoding="utf-8"?>
<!-- Generator: Adobe Illustrator 19.2.1, SVG Export Plug-In . SVG Version: 6.00 Build 0)  -->
<svg version="1.1" xmlns="http://www.w3.org/2000/svg" xmlns:xlink="http://www.w3.org/1999/xlink" x="0px" y="0px"
	 viewBox="0 0 153.9 30.5" style="enable-background:new 0 0 153.9 30.5;" xml:space="preserve">
<style type="text/css">
	.st0{fill:none;}
	.st1{fill:#28388A;}
</style>
<g id="Layer_2">
</g>
<g id="Layer_1">
	<g>
		<path class="st0" d="M2.1,30.3c-0.8,0-1.4-0.6-1.4-1.4V1.7c0-0.8,0.6-1.4,1.4-1.4h150.4c0.8,0,1.4,0.6,1.4,1.4v27.3
			c0,0.8-0.6,1.4-1.4,1.4H2.1z"/>
		<g>
			<rect x="7.7" y="7.3" class="st0" width="139.2" height="16.1"/>
			<g>
				<g>
					<polygon class="st1" points="62.6,23.3 21.3,23.3 24.6,26.6 					"/>
					<path class="st1" d="M25.2,10.1v0.5c-0.8-0.5-1.5-0.8-2.4-0.8c-2.9,0-5.1,2.6-5.1,5.9c0,3.2,2.2,5.9,5.1,5.9
						c0.9,0,1.6-0.3,2.4-0.8v0.5h2.5V10.1H25.2z M22.8,18.8c-1.4,0-2.5-1.4-2.5-3.2c0-1.8,1-3.2,2.5-3.2c1.4,0,2.4,1.4,2.4,3.2
						C25.2,17.4,24.2,18.8,22.8,18.8z"/>
					<path class="st1" d="M45.5,10.1v6.6c0,1.2-0.8,2.3-2.1,2.3c-1.2,0-2.1-1-2.1-2.3v-6.6h-2.5v6.6c0,2.7,1.8,4.9,4.5,4.9
						c1.2,0,2.2-0.7,2.2-0.7v0.4H48V10.1H45.5z"/>
					<path class="st1" d="M69.2,21.2v-6.6c0-1.2,0.8-2.3,2.1-2.3c1.2,0,2.1,1,2.1,2.3v6.6h2.5v-6.6c0-2.7-1.8-4.9-4.5-4.9
						c-1.2,0-2.2,0.7-2.2,0.7v-0.4h-2.5v11.2H69.2z"/>
					<path class="st1" d="M10.4,21.2v-4.3h1.9l3.3,4.3h3.3L14.9,16c1.2-0.9,2-2.3,2-3.9c0-2.7-2.2-4.8-4.8-4.8H7.7v14H10.4z
						 M10.4,9.9h1.7c1.2,0,2.2,1,2.2,2.2c0,1.2-1,2.2-2.2,2.2h-1.7V9.9z"/>
					<path class="st1" d="M54.9,18.6c-0.2,0.2-0.5,0.3-0.8,0.3c-0.4,0-1.2-0.3-1.2-1.4v-4.8H55v-2.7h-2.2l0-2.8h-2.5l0,2.8H49v2.7
						h1.3v4.8c0,2.5,1.9,4,3.8,4c0.7,0,1.7-0.2,2.5-0.7L54.9,18.6z"/>
					<polygon class="st1" points="34,15.3 38.4,10.1 34.8,10.1 31.8,14 31.8,6.3 29.1,6.3 29.1,21.2 31.8,21.2 31.8,16.7 35.5,21.2 
						39.1,21.2 					"/>
					<path class="st1" d="M60.7,9.8c-2.9,0-5,2.6-5,5.9c0,3.5,2.6,5.9,5.3,5.9c1.3,0,3.1-0.5,4.5-2.5l-2.2-1.3
						c-1.7,2.6-4.6,1.3-5-1.3l7.3,0C66.2,12.4,63.6,9.8,60.7,9.8z M63,14.2h-4.6C58.9,11.6,62.5,11.4,63,14.2z"/>
				</g>
				<g id="Blue_5_" transform="translate(513.451923, 91.862069)">
					<path id="Fill-11_5_" class="st1" d="M-429.6-81.8c-0.5,0-1,0-1.4,0.1v4.2h1c0.6,0,1.1,0,1.5-0.1c0.4-0.1,0.8-0.2,1.1-0.3
						c0.3-0.2,0.5-0.4,0.7-0.7c0.2-0.3,0.2-0.6,0.2-1.1c0-0.4-0.1-0.7-0.2-1c-0.2-0.3-0.4-0.5-0.7-0.7c-0.3-0.2-0.6-0.3-1-0.4
						C-428.7-81.8-429.1-81.8-429.6-81.8 M-429.8-83.9c1.9,0,3.4,0.3,4.4,1c1,0.7,1.5,1.8,1.5,3.2c0,1.8-0.9,3-2.6,3.6
						c0.2,0.3,0.5,0.6,0.8,1.1c0.3,0.4,0.6,0.9,0.9,1.4c0.3,0.5,0.6,1,0.9,1.5c0.3,0.5,0.6,1,0.8,1.5h-2.7c-0.2-0.5-0.5-0.9-0.8-1.4
						c-0.3-0.5-0.6-0.9-0.8-1.3c-0.3-0.4-0.6-0.8-0.8-1.2c-0.3-0.4-0.5-0.7-0.8-1c-0.2,0-0.3,0-0.5,0h-0.4h-1.2v5h-2.4v-13
						c0.6-0.1,1.2-0.2,1.9-0.3C-430.9-83.9-430.3-83.9-429.8-83.9"/>
					<path id="Fill-13_5_" class="st1" d="M-399.6-83.4c0,0.4-0.1,0.8-0.4,1c-0.3,0.3-0.6,0.4-1,0.4c-0.4,0-0.7-0.1-1-0.4
						c-0.3-0.3-0.4-0.6-0.4-1c0-0.4,0.1-0.8,0.4-1c0.3-0.3,0.6-0.4,1-0.4c0.4,0,0.7,0.1,1,0.4C-399.8-84.2-399.6-83.9-399.6-83.4"/>
					<path id="Fill-15_5_" class="st1" d="M-418.4-72.2c0.7,0,1.2,0,1.6-0.1v-2.5c-0.1,0-0.3-0.1-0.6-0.1c-0.2,0-0.5-0.1-0.8-0.1
						c-0.3,0-0.5,0-0.8,0.1c-0.3,0-0.5,0.1-0.7,0.2c-0.2,0.1-0.4,0.2-0.5,0.4c-0.1,0.2-0.2,0.4-0.2,0.7c0,0.5,0.2,0.9,0.5,1.1
						C-419.5-72.3-419-72.2-418.4-72.2 M-418.6-80.8c0.8,0,1.4,0.1,1.9,0.3c0.5,0.2,0.9,0.5,1.2,0.8c0.3,0.3,0.5,0.8,0.7,1.2
						c0.1,0.5,0.2,1,0.2,1.6v6c-0.4,0.1-0.9,0.2-1.6,0.3c-0.7,0.1-1.5,0.2-2.4,0.2c-0.6,0-1.1-0.1-1.6-0.2c-0.5-0.1-0.9-0.3-1.3-0.6
						c-0.3-0.3-0.6-0.6-0.8-1c-0.2-0.4-0.3-0.9-0.3-1.5c0-0.6,0.1-1,0.3-1.4c0.2-0.4,0.5-0.7,0.9-1c0.4-0.2,0.8-0.4,1.3-0.5
						c0.5-0.1,1-0.2,1.6-0.2c0.3,0,0.5,0,0.8,0c0.3,0,0.6,0.1,0.9,0.2v-0.4c0-0.3,0-0.5-0.1-0.8c-0.1-0.2-0.2-0.5-0.3-0.6
						c-0.2-0.2-0.4-0.3-0.6-0.4c-0.3-0.1-0.6-0.2-1-0.2c-0.5,0-1,0-1.5,0.1c-0.4,0.1-0.8,0.2-1.1,0.3l-0.3-1.9
						c0.3-0.1,0.7-0.2,1.3-0.3C-419.9-80.7-419.3-80.8-418.6-80.8"/>
					<path id="Fill-17_5_" class="st1" d="M-405.9-75.5c0-1-0.2-1.8-0.7-2.4c-0.5-0.6-1.2-0.9-2.2-0.9c-0.2,0-0.4,0-0.7,0
						c-0.2,0-0.5,0.1-0.7,0.1v5.7c0.2,0.1,0.5,0.3,0.8,0.4c0.3,0.1,0.7,0.2,1.1,0.2c0.8,0,1.4-0.3,1.8-0.9
						C-406.1-73.8-405.9-74.6-405.9-75.5 M-403.6-75.6c0,0.8-0.1,1.5-0.3,2.1c-0.2,0.6-0.5,1.2-0.8,1.6c-0.4,0.5-0.8,0.8-1.4,1.1
						c-0.6,0.3-1.2,0.4-1.9,0.4c-0.5,0-0.9-0.1-1.3-0.2c-0.4-0.1-0.7-0.2-1-0.4v3.9h-2.3v-13.1c0.5-0.1,1-0.2,1.7-0.4
						c0.7-0.1,1.4-0.2,2.2-0.2c0.8,0,1.5,0.1,2.1,0.4c0.6,0.2,1.1,0.6,1.6,1c0.4,0.4,0.8,1,1,1.6C-403.7-77.1-403.6-76.4-403.6-75.6
						"/>
					<polygon id="Fill-19_5_" class="st1" points="-402.2,-70.6 -399.9,-70.6 -399.9,-80.5 -402.2,-80.5 					"/>
					<path id="Fill-21_5_" class="st1" d="M-380.1-74.5c-0.3-0.8-0.6-1.6-0.9-2.3c-0.3-0.8-0.6-1.5-0.9-2.2
						c-0.3,0.7-0.6,1.4-0.9,2.2c-0.3,0.8-0.6,1.5-0.9,2.3H-380.1z M-378.9-70.9c-0.2-0.4-0.3-0.8-0.4-1.2c-0.1-0.4-0.3-0.8-0.4-1.2
						h-4.4l-0.9,2.5h-1.4c0.4-1,0.7-2,1-2.8c0.3-0.9,0.6-1.7,1-2.5c0.3-0.8,0.6-1.5,0.9-2.2c0.3-0.7,0.6-1.4,1-2.1h1.2
						c0.3,0.7,0.7,1.4,1,2.1c0.3,0.7,0.6,1.5,0.9,2.2c0.3,0.8,0.6,1.6,1,2.5c0.3,0.9,0.7,1.8,1,2.8H-378.9z"/>
					<path id="Fill-22_5_" class="st1" d="M-373.5-79.5c-0.6,0-1,0-1.3,0v3.8h1c0.5,0,0.9,0,1.3-0.1c0.4-0.1,0.7-0.2,0.9-0.3
						c0.3-0.1,0.5-0.3,0.6-0.6c0.1-0.3,0.2-0.6,0.2-1c0-0.4-0.1-0.7-0.2-0.9c-0.1-0.2-0.3-0.4-0.6-0.6c-0.2-0.1-0.5-0.2-0.9-0.3
						C-372.8-79.4-373.1-79.5-373.5-79.5 M-373.6-80.7c1.4,0,2.4,0.3,3.1,0.8c0.7,0.5,1.1,1.3,1.1,2.3c0,0.6-0.1,1-0.3,1.4
						c-0.2,0.4-0.5,0.7-0.9,1c-0.4,0.2-0.8,0.4-1.4,0.5c-0.5,0.1-1.1,0.2-1.8,0.2h-1.1v3.6h-1.4v-9.5c0.4-0.1,0.8-0.2,1.3-0.2
						C-374.4-80.6-374-80.7-373.6-80.7"/>
					<polygon id="Fill-23_5_" class="st1" points="-367.9,-70.9 -366.5,-70.9 -366.5,-80.6 -367.9,-80.6 					"/>
					<path id="Fill-24_5_" class="st1" d="M-395.5-75.6c0,1,0.2,1.8,0.7,2.4c0.5,0.6,1.1,0.9,2,0.9c0.4,0,0.7,0,0.9,0
						c0.3,0,0.5-0.1,0.6-0.1v-5.7c-0.2-0.1-0.5-0.3-0.8-0.4c-0.3-0.1-0.7-0.2-1.1-0.2c-0.8,0-1.4,0.3-1.8,0.9
						C-395.3-77.4-395.5-76.6-395.5-75.6z M-388.9-70.9c-0.5,0.1-1,0.3-1.7,0.4c-0.7,0.1-1.4,0.2-2.2,0.2c-0.8,0-1.5-0.1-2.1-0.4
						c-0.6-0.2-1.1-0.6-1.6-1c-0.4-0.4-0.8-1-1-1.6c-0.2-0.6-0.4-1.4-0.4-2.2c0-0.8,0.1-1.5,0.3-2.1c0.2-0.6,0.5-1.2,0.9-1.6
						c0.4-0.5,0.8-0.8,1.4-1.1c0.5-0.2,1.2-0.4,1.9-0.4c0.5,0,0.9,0.1,1.3,0.2c0.4,0.1,0.7,0.2,0.9,0.4v-4.3h2.3V-70.9z"/>
				</g>
			</g>
		</g>
	</g>
</g>
</svg>
